HIERARCHY
ROOT joint_0
{
	OFFSET 0.000000 0.000000 0.000000
	CHANNELS 6 Xposition Yposition Zposition Zrotation Yrotation Xrotation 
	JOINT joint_1
	{
		OFFSET 11.612000 -0.419000 106.198000
		CHANNELS 3 Zrotation Yrotation Xrotation
		JOINT joint_2
		{
			OFFSET -1.708000 -1.022000 97.564090
			CHANNELS 3 Zrotation Yrotation Xrotation
			JOINT joint_3
			{
				OFFSET -4.121000 -1.538000 97.375000
				CHANNELS 3 Zrotation Yrotation Xrotation
				JOINT joint_4
				{
					OFFSET 5.442000 -2.123000 132.795900
					CHANNELS 3 Zrotation Yrotation Xrotation
					JOINT joint_5
					{
						OFFSET 21.935000 0.195000 82.975100
						CHANNELS 3 Zrotation Yrotation Xrotation
						End Site
						{
							OFFSET 0.000000 0.000000 0.000000
						}
					}
				}
				JOINT joint_6
				{
					OFFSET 4.262000 -30.048000 73.899900
					CHANNELS 3 Zrotation Yrotation Xrotation
					JOINT joint_7
					{
						OFFSET 9.731000 -136.810010 -21.963010
						CHANNELS 3 Zrotation Yrotation Xrotation
						JOINT joint_8
						{
							OFFSET 33.360000 -35.709000 -267.597900
							CHANNELS 3 Zrotation Yrotation Xrotation
							JOINT joint_9
							{
								OFFSET 36.156000 -29.759000 -240.558040
								CHANNELS 3 Zrotation Yrotation Xrotation
								End Site
								{
									OFFSET 0.000000 0.000000 0.000000
								}
							}
						}
					}
				}
				JOINT joint_10
				{
					OFFSET 2.027000 27.734000 74.914920
					CHANNELS 3 Zrotation Yrotation Xrotation
					JOINT joint_11
					{
						OFFSET -5.183000 136.784000 -23.604980
						CHANNELS 3 Zrotation Yrotation Xrotation
						JOINT joint_12
						{
							OFFSET 29.806000 37.229000 -267.809940
							CHANNELS 3 Zrotation Yrotation Xrotation
							JOINT joint_13
							{
								OFFSET 36.890000 46.524990 -237.772030
								CHANNELS 3 Zrotation Yrotation Xrotation
								End Site
								{
									OFFSET 0.000000 0.000000 0.000000
								}
							}
						}
					}
				}
			}
		}
	}
	JOINT joint_14
	{
		OFFSET -7.290000 -102.873990 -124.314940
		CHANNELS 3 Zrotation Yrotation Xrotation
		JOINT joint_15
		{
			OFFSET -15.466000 -19.909010 -438.533020
			CHANNELS 3 Zrotation Yrotation Xrotation
			JOINT joint_16
			{
				OFFSET -26.899000 -18.922000 -464.797000
				CHANNELS 3 Zrotation Yrotation Xrotation
				JOINT joint_17
				{
					OFFSET 179.329000 -12.011000 -84.174000
					CHANNELS 3 Zrotation Yrotation Xrotation
					End Site
					{
						OFFSET 0.000000 0.000000 0.000000
					}
				}
			}
		}
	}
	JOINT joint_18
	{
		OFFSET -6.225000 101.546000 -125.479980
		CHANNELS 3 Zrotation Yrotation Xrotation
		JOINT joint_19
		{
			OFFSET -13.973000 7.996000 -438.963010
			CHANNELS 3 Zrotation Yrotation Xrotation
			JOINT joint_20
			{
				OFFSET -44.294000 5.716000 -463.813970
				CHANNELS 3 Zrotation Yrotation Xrotation
				JOINT joint_21
				{
					OFFSET 178.505000 -4.689000 -85.139000
					CHANNELS 3 Zrotation Yrotation Xrotation
					End Site
					{
						OFFSET 0.000000 0.000000 0.000000
					}
				}
			}
		}
	}
}
MOTION
Frames: 12
Frame Time: 0.016667
-3351.993164 916.908997 1127.504028 -0.065755 -5.189382 0.238101 -0.699692 7.767065 1.197317 -0.837199 -1.608838 -0.303564 -0.770450 1.551197 0.137066 0.261181 -1.035537 -0.973302 0.000000 0.000000 0.000000 -2.007872 -1.707025 0.121758 0.196098 -2.250099 -2.490758 3.081513 -14.608093 7.150375 0.000000 0.000000 0.000000 0.834543 -1.242237 -0.456176 -0.661683 -1.390036 2.148073 -3.055418 -11.011096 -7.024281 0.000000 0.000000 0.000000 -1.248616 3.584568 1.997281 -1.152299 3.466785 -0.900920 -0.769426 -6.386208 -0.788003 0.000000 0.000000 0.000000 4.061833 2.736599 1.238213 4.058200 0.799298 0.465512 3.918643 -0.522976 1.846461 0.000000 0.000000 0.000000 
-3350.702148 916.397156 1127.578003 0.122216 -5.154149 0.221787 -0.697445 8.069981 1.244696 -0.841874 -1.659969 -0.318499 -0.773852 1.591746 0.145022 0.255745 -1.147170 -0.954823 0.000000 0.000000 0.000000 -2.290631 -1.502072 0.129449 0.149029 -2.110434 -2.866273 3.833909 -18.491760 8.735426 0.000000 0.000000 0.000000 0.982231 -1.137111 -0.444926 -0.693965 -1.299909 2.407802 -3.556202 -13.360294 -7.814352 0.000000 0.000000 0.000000 -1.347796 3.460708 1.908919 -1.291110 3.984267 -0.699338 -0.826125 -7.502416 -0.889524 0.000000 0.000000 0.000000 4.029302 2.566192 1.342102 4.038774 1.239245 0.452107 3.889858 -1.169895 1.815606 0.000000 0.000000 0.000000 
-3349.135254 915.873779 1127.692993 0.347177 -5.115923 0.191500 -0.692462 8.402748 1.326190 -0.845139 -1.708840 -0.343727 -0.775689 1.626721 0.159559 0.249633 -1.226378 -0.935722 0.000000 0.000000 0.000000 -2.613262 -1.291867 0.343885 0.028460 -1.997082 -3.546526 4.665416 -23.086801 10.467991 0.000000 0.000000 0.000000 1.148018 -1.038979 -0.515397 -0.710558 -1.205075 2.771516 -4.151984 -16.226321 -8.793814 0.000000 0.000000 0.000000 -1.463360 3.333695 1.824318 -1.448946 4.528765 -0.461206 -0.900489 -8.570037 -0.996108 0.000000 0.000000 0.000000 3.995484 2.401690 1.460820 4.018733 1.678692 0.434995 3.861291 -1.809476 1.785048 0.000000 0.000000 0.000000 
-3346.453369 915.186646 1127.782959 0.588596 -4.946950 0.171376 -0.686996 8.674928 1.385864 -0.847117 -1.753711 -0.362883 -0.776928 1.658460 0.174129 0.241350 -1.417460 -0.910059 0.000000 0.000000 0.000000 -2.900395 -1.161781 0.504180 -0.181334 -1.941458 -4.261378 5.502949 -28.247144 12.285919 0.000000 0.000000 0.000000 1.258156 -0.898978 -0.440469 -0.689115 -1.048022 3.127319 -4.871547 -20.002123 -9.946705 0.000000 0.000000 0.000000 -1.586104 3.162129 1.767048 -1.610118 4.989457 -0.261493 -0.987324 -9.542508 -1.102228 0.000000 0.000000 0.000000 3.953059 2.236438 1.570448 3.987110 1.962985 0.415204 3.822920 -2.419794 1.750775 0.000000 0.000000 0.000000 
-3342.246338 914.247986 1127.817017 0.845368 -4.564324 0.176279 -0.683387 8.827897 1.396712 -0.848491 -1.787799 -0.371232 -0.778678 1.684295 0.181922 0.225079 -1.827829 -0.857529 0.000000 0.000000 0.000000 -3.088369 -1.148472 0.515734 -0.530297 -1.947702 -4.935493 6.303280 -34.026682 14.197120 0.000000 0.000000 0.000000 1.241931 -0.674866 -0.204923 -0.556708 -0.750839 3.584127 -5.714642 -25.051148 -11.281319 0.000000 0.000000 0.000000 -1.720243 2.913184 1.763122 -1.773684 5.290490 -0.161354 -1.093539 -10.378036 -1.208282 0.000000 0.000000 0.000000 3.897573 2.050747 1.652736 3.937434 2.002854 0.396149 3.768320 -2.988428 1.710134 0.000000 0.000000 0.000000 
-3336.843750 913.114868 1127.822998 1.125842 -4.016716 0.197298 -0.681230 8.893036 1.384041 -0.849017 -1.805463 -0.378473 -0.780158 1.698876 0.186061 0.201020 -2.403787 -0.780829 0.000000 0.000000 0.000000 -3.204268 -1.265696 0.558981 -1.052631 -2.052521 -5.719105 7.038516 -40.385052 16.178979 0.000000 0.000000 0.000000 1.124282 -0.434588 -0.002472 -0.270484 -0.361007 4.279160 -6.595385 -31.116928 -12.754777 0.000000 0.000000 0.000000 -1.869669 2.601475 1.806306 -1.945691 5.474796 -0.133018 -1.221161 -11.094362 -1.316345 0.000000 0.000000 0.000000 3.832014 1.845225 1.720001 3.874492 1.858743 0.375290 3.701441 -3.519894 1.664705 0.000000 0.000000 0.000000 
-3329.534180 911.731384 1127.734985 1.374375 -3.295606 0.240385 -0.677542 8.860144 1.313316 -0.844821 -1.807232 -0.367209 -0.778314 1.697819 0.181977 0.176547 -3.105464 -0.706794 0.000000 0.000000 0.000000 -3.302461 -1.616167 0.514518 -1.721905 -2.332055 -6.384377 7.687451 -47.114075 18.160136 0.000000 0.000000 0.000000 0.963435 -0.300372 0.401712 0.110013 -0.038102 4.799687 -7.455600 -38.011690 -14.223969 0.000000 0.000000 0.000000 -2.001276 2.252445 1.861088 -2.095013 5.547206 -0.126192 -1.335784 -11.713767 -1.411829 0.000000 0.000000 0.000000 3.759599 1.695916 1.794679 3.800357 1.456369 0.328238 3.622769 -3.969922 1.615752 0.000000 0.000000 0.000000 
-3319.711426 910.028809 1127.515991 1.534137 -2.344392 0.309923 -0.662461 8.707836 1.142794 -0.824129 -1.790963 -0.319484 -0.762416 1.680219 0.161035 0.156448 -4.009589 -0.651023 0.000000 0.000000 0.000000 -3.391178 -2.229192 0.440555 -2.565052 -2.784340 -6.923324 8.281750 -54.529646 20.109240 0.000000 0.000000 0.000000 0.741010 -0.275699 1.041913 0.574612 0.222696 5.040673 -8.326672 -46.217188 -15.577160 0.000000 0.000000 0.000000 -2.090714 1.856158 1.908229 -2.198097 5.478105 -0.108636 -1.409858 -12.326911 -1.487991 0.000000 0.000000 0.000000 3.682840 1.685254 1.896956 3.713953 0.610728 0.232231 3.532507 -4.310287 1.563737 0.000000 0.000000 0.000000 
-3307.654297 908.030579 1127.191040 1.628088 -1.164459 0.393382 -0.639245 8.430728 0.903989 -0.787976 -1.733621 -0.255028 -0.732711 1.624455 0.124305 0.136157 -5.128807 -0.590586 0.000000 0.000000 0.000000 -3.460592 -3.175983 0.457417 -3.592964 -3.445366 -7.415566 8.794666 -62.579896 21.956268 0.000000 0.000000 0.000000 0.444006 -0.407919 1.710286 1.104955 0.373816 5.223923 -9.177168 -55.551238 -16.748709 0.000000 0.000000 0.000000 -2.151133 1.401623 1.973883 -2.266571 5.262219 -0.101348 -1.458135 -12.897870 -1.549086 0.000000 0.000000 0.000000 3.600199 1.784308 2.029610 3.614516 -0.658849 0.098908 3.437519 -4.510744 1.512031 0.000000 0.000000 0.000000 
-3293.905029 905.860779 1126.735962 1.748170 0.029229 0.474202 -0.648169 8.068254 0.691756 -0.779413 -1.621462 -0.207744 -0.730552 1.516391 0.092697 0.114736 -6.022628 -0.513900 0.000000 0.000000 0.000000 -3.597360 -4.816180 0.349666 -4.717196 -4.508610 -7.591689 9.160820 -69.951617 23.763729 0.000000 0.000000 0.000000 0.237039 -1.080465 2.542167 1.561093 -0.084268 5.066380 -9.948297 -64.179392 -17.839449 0.000000 0.000000 0.000000 -2.193247 1.003957 2.057813 -2.312211 5.028120 -0.111393 -1.506653 -12.999340 -1.577829 0.000000 0.000000 0.000000 3.508228 1.844433 2.184778 3.510866 -1.761942 -0.041673 3.345473 -4.475533 1.466866 0.000000 0.000000 0.000000 
-3278.816406 903.623352 1126.099976 1.978955 1.103902 0.570109 -0.726009 7.621390 0.536646 -0.838840 -1.486790 -0.184016 -0.796045 1.388031 0.079669 0.091608 -6.345871 -0.420553 0.000000 0.000000 0.000000 -3.858621 -7.596242 0.269431 -6.045852 -6.098629 -7.617613 9.289998 -76.214414 25.893469 0.000000 0.000000 0.000000 0.145116 -2.648964 3.384363 2.058274 -1.484497 4.642578 -10.672913 -71.436447 -19.066025 0.000000 0.000000 0.000000 -2.205565 0.733174 2.108661 -2.324795 4.821561 -0.123390 -1.564151 -12.132005 -1.544277 0.000000 0.000000 0.000000 3.390940 1.771964 2.337292 3.393845 -2.362480 -0.195587 3.237352 -4.021641 1.424873 0.000000 0.000000 0.000000 
-3262.186035 901.270508 1125.291992 2.288861 2.142560 0.692218 -0.859507 7.074562 0.398034 -0.953011 -1.345187 -0.160572 -0.917765 1.258682 0.073302 0.075297 -6.271748 -0.332555 0.000000 0.000000 0.000000 -4.225344 -11.765634 0.671719 -7.608958 -8.067987 -7.748275 8.980901 -81.689015 28.371509 0.000000 0.000000 0.000000 0.061414 -5.165088 3.915141 2.786112 -3.750272 4.195604 -11.340001 -77.819641 -20.382768 0.000000 0.000000 0.000000 -2.181950 0.545239 2.124745 -2.297085 4.575889 -0.137472 -1.620584 -10.424546 -1.452671 0.000000 0.000000 0.000000 3.247004 1.622253 2.488174 3.257066 -2.693523 -0.374806 3.106820 -3.162950 1.382626 0.000000 0.000000 0.000000 
